<?xml version="1.0" encoding="utf-8" standalone="no"?>
<!DOCTYPE svg PUBLIC "-//W3C//DTD SVG 1.1//EN"
  "http://www.w3.org/Graphics/SVG/1.1/DTD/svg11.dtd">
<svg xmlns:xlink="http://www.w3.org/1999/xlink" width="903.8375pt" height="438.472605pt" viewBox="0 0 903.8375 438.472605" xmlns="http://www.w3.org/2000/svg" version="1.1">
 <metadata>
  <rdf:RDF xmlns:dc="http://purl.org/dc/elements/1.1/" xmlns:cc="http://creativecommons.org/ns#" xmlns:rdf="http://www.w3.org/1999/02/22-rdf-syntax-ns#">
   <cc:Work>
    <dc:type rdf:resource="http://purl.org/dc/dcmitype/StillImage"/>
    <dc:date>2026-04-01T05:36:01.652053</dc:date>
    <dc:format>image/svg+xml</dc:format>
    <dc:creator>
     <cc:Agent>
      <dc:title>Matplotlib v3.10.8, https://matplotlib.org/</dc:title>
     </cc:Agent>
    </dc:creator>
   </cc:Work>
  </rdf:RDF>
 </metadata>
 <defs>
  <style type="text/css">*{stroke-linejoin: round; stroke-linecap: butt}</style>
 </defs>
 <g id="figure_1">
  <g id="patch_1">
   <path d="M 0 438.472605 
L 903.8375 438.472605 
L 903.8375 0 
L 0 0 
z
" style="fill: #ffffff"/>
  </g>
  <g id="axes_1">
   <g id="patch_2">
    <path d="M 59.6375 345.389812 
L 896.6375 345.389812 
L 896.6375 23.837812 
L 59.6375 23.837812 
z
" style="fill: #ffffff"/>
   </g>
   <g id="patch_3">
    <path d="M 156.214423 345.389812 
L 585.445192 345.389812 
L 585.445192 23.837812 
L 156.214423 23.837812 
z
" clip-path="url(#pa141612df6)" style="fill: #eef3f9; opacity: 0.6; stroke: #eef3f9; stroke-linejoin: miter"/>
   </g>
   <g id="patch_4">
    <path d="M 585.445192 345.389812 
L 800.060577 345.389812 
L 800.060577 23.837812 
L 585.445192 23.837812 
z
" clip-path="url(#pa141612df6)" style="fill: #fdebec; opacity: 0.55; stroke: #fdebec; stroke-linejoin: miter"/>
   </g>
   <g id="patch_5">
    <path d="M 800.060577 345.389812 
L 907.368269 345.389812 
L 907.368269 23.837812 
L 800.060577 23.837812 
z
" clip-path="url(#pa141612df6)" style="fill: #edf7f5; opacity: 0.65; stroke: #edf7f5; stroke-linejoin: miter"/>
   </g>
   <g id="matplotlib.axis_1">
    <g id="xtick_1">
     <g id="line2d_1">
      <defs>
       <path id="m8769c4ee61" d="M 0 0 
L 0 3.5 
" style="stroke: #000000; stroke-width: 0.8"/>
      </defs>
      <g>
       <use xlink:href="#m8769c4ee61" x="102.560577" y="345.389812" style="stroke: #000000; stroke-width: 0.8"/>
      </g>
     </g>
     <g id="text_1">
      <!-- Baseline -->
      <g transform="translate(66.063062 371.866996) rotate(-20) scale(0.09 -0.09)">
       <defs>
        <path id="DejaVuSans-42" d="M 1259 2228 
L 1259 519 
L 2272 519 
Q 2781 519 3026 730 
Q 3272 941 3272 1375 
Q 3272 1813 3026 2020 
Q 2781 2228 2272 2228 
L 1259 2228 
z
M 1259 4147 
L 1259 2741 
L 2194 2741 
Q 2656 2741 2882 2914 
Q 3109 3088 3109 3444 
Q 3109 3797 2882 3972 
Q 2656 4147 2194 4147 
L 1259 4147 
z
M 628 4666 
L 2241 4666 
Q 2963 4666 3353 4366 
Q 3744 4066 3744 3513 
Q 3744 3084 3544 2831 
Q 3344 2578 2956 2516 
Q 3422 2416 3680 2098 
Q 3938 1781 3938 1306 
Q 3938 681 3513 340 
Q 3088 0 2303 0 
L 628 0 
L 628 4666 
z
" transform="scale(0.015625)"/>
        <path id="DejaVuSans-61" d="M 2194 1759 
Q 1497 1759 1228 1600 
Q 959 1441 959 1056 
Q 959 750 1161 570 
Q 1363 391 1709 391 
Q 2188 391 2477 730 
Q 2766 1069 2766 1631 
L 2766 1759 
L 2194 1759 
z
M 3341 1997 
L 3341 0 
L 2766 0 
L 2766 531 
Q 2569 213 2275 61 
Q 1981 -91 1556 -91 
Q 1019 -91 701 211 
Q 384 513 384 1019 
Q 384 1609 779 1909 
Q 1175 2209 1959 2209 
L 2766 2209 
L 2766 2266 
Q 2766 2663 2505 2880 
Q 2244 3097 1772 3097 
Q 1472 3097 1187 3025 
Q 903 2953 641 2809 
L 641 3341 
Q 956 3463 1253 3523 
Q 1550 3584 1831 3584 
Q 2591 3584 2966 3190 
Q 3341 2797 3341 1997 
z
" transform="scale(0.015625)"/>
        <path id="DejaVuSans-73" d="M 2834 3397 
L 2834 2853 
Q 2591 2978 2328 3040 
Q 2066 3103 1784 3103 
Q 1356 3103 1142 2972 
Q 928 2841 928 2578 
Q 928 2378 1081 2264 
Q 1234 2150 1697 2047 
L 1894 2003 
Q 2506 1872 2764 1633 
Q 3022 1394 3022 966 
Q 3022 478 2636 193 
Q 2250 -91 1575 -91 
Q 1294 -91 989 -36 
Q 684 19 347 128 
L 347 722 
Q 666 556 975 473 
Q 1284 391 1588 391 
Q 1994 391 2212 530 
Q 2431 669 2431 922 
Q 2431 1156 2273 1281 
Q 2116 1406 1581 1522 
L 1381 1569 
Q 847 1681 609 1914 
Q 372 2147 372 2553 
Q 372 3047 722 3315 
Q 1072 3584 1716 3584 
Q 2034 3584 2315 3537 
Q 2597 3491 2834 3397 
z
" transform="scale(0.015625)"/>
        <path id="DejaVuSans-65" d="M 3597 1894 
L 3597 1613 
L 953 1613 
Q 991 1019 1311 708 
Q 1631 397 2203 397 
Q 2534 397 2845 478 
Q 3156 559 3463 722 
L 3463 178 
Q 3153 47 2828 -22 
Q 2503 -91 2169 -91 
Q 1331 -91 842 396 
Q 353 884 353 1716 
Q 353 2575 817 3079 
Q 1281 3584 2069 3584 
Q 2775 3584 3186 3129 
Q 3597 2675 3597 1894 
z
M 3022 2063 
Q 3016 2534 2758 2815 
Q 2500 3097 2075 3097 
Q 1594 3097 1305 2825 
Q 1016 2553 972 2059 
L 3022 2063 
z
" transform="scale(0.015625)"/>
        <path id="DejaVuSans-6c" d="M 603 4863 
L 1178 4863 
L 1178 0 
L 603 0 
L 603 4863 
z
" transform="scale(0.015625)"/>
        <path id="DejaVuSans-69" d="M 603 3500 
L 1178 3500 
L 1178 0 
L 603 0 
L 603 3500 
z
M 603 4863 
L 1178 4863 
L 1178 4134 
L 603 4134 
L 603 4863 
z
" transform="scale(0.015625)"/>
        <path id="DejaVuSans-6e" d="M 3513 2113 
L 3513 0 
L 2938 0 
L 2938 2094 
Q 2938 2591 2744 2837 
Q 2550 3084 2163 3084 
Q 1697 3084 1428 2787 
Q 1159 2491 1159 1978 
L 1159 0 
L 581 0 
L 581 3500 
L 1159 3500 
L 1159 2956 
Q 1366 3272 1645 3428 
Q 1925 3584 2291 3584 
Q 2894 3584 3203 3211 
Q 3513 2838 3513 2113 
z
" transform="scale(0.015625)"/>
       </defs>
       <use xlink:href="#DejaVuSans-42"/>
       <use xlink:href="#DejaVuSans-61" transform="translate(68.603516 0)"/>
       <use xlink:href="#DejaVuSans-73" transform="translate(129.882812 0)"/>
       <use xlink:href="#DejaVuSans-65" transform="translate(181.982422 0)"/>
       <use xlink:href="#DejaVuSans-6c" transform="translate(243.505859 0)"/>
       <use xlink:href="#DejaVuSans-69" transform="translate(271.289062 0)"/>
       <use xlink:href="#DejaVuSans-6e" transform="translate(299.072266 0)"/>
       <use xlink:href="#DejaVuSans-65" transform="translate(362.451172 0)"/>
      </g>
     </g>
    </g>
    <g id="xtick_2">
     <g id="line2d_2">
      <g>
       <use xlink:href="#m8769c4ee61" x="209.868269" y="345.389812" style="stroke: #000000; stroke-width: 0.8"/>
      </g>
     </g>
     <g id="text_2">
      <!-- Smoke Phase A -->
      <g transform="translate(144.239549 382.469888) rotate(-20) scale(0.09 -0.09)">
       <defs>
        <path id="DejaVuSans-53" d="M 3425 4513 
L 3425 3897 
Q 3066 4069 2747 4153 
Q 2428 4238 2131 4238 
Q 1616 4238 1336 4038 
Q 1056 3838 1056 3469 
Q 1056 3159 1242 3001 
Q 1428 2844 1947 2747 
L 2328 2669 
Q 3034 2534 3370 2195 
Q 3706 1856 3706 1288 
Q 3706 609 3251 259 
Q 2797 -91 1919 -91 
Q 1588 -91 1214 -16 
Q 841 59 441 206 
L 441 856 
Q 825 641 1194 531 
Q 1563 422 1919 422 
Q 2459 422 2753 634 
Q 3047 847 3047 1241 
Q 3047 1584 2836 1778 
Q 2625 1972 2144 2069 
L 1759 2144 
Q 1053 2284 737 2584 
Q 422 2884 422 3419 
Q 422 4038 858 4394 
Q 1294 4750 2059 4750 
Q 2388 4750 2728 4690 
Q 3069 4631 3425 4513 
z
" transform="scale(0.015625)"/>
        <path id="DejaVuSans-6d" d="M 3328 2828 
Q 3544 3216 3844 3400 
Q 4144 3584 4550 3584 
Q 5097 3584 5394 3201 
Q 5691 2819 5691 2113 
L 5691 0 
L 5113 0 
L 5113 2094 
Q 5113 2597 4934 2840 
Q 4756 3084 4391 3084 
Q 3944 3084 3684 2787 
Q 3425 2491 3425 1978 
L 3425 0 
L 2847 0 
L 2847 2094 
Q 2847 2600 2669 2842 
Q 2491 3084 2119 3084 
Q 1678 3084 1418 2786 
Q 1159 2488 1159 1978 
L 1159 0 
L 581 0 
L 581 3500 
L 1159 3500 
L 1159 2956 
Q 1356 3278 1631 3431 
Q 1906 3584 2284 3584 
Q 2666 3584 2933 3390 
Q 3200 3197 3328 2828 
z
" transform="scale(0.015625)"/>
        <path id="DejaVuSans-6f" d="M 1959 3097 
Q 1497 3097 1228 2736 
Q 959 2375 959 1747 
Q 959 1119 1226 758 
Q 1494 397 1959 397 
Q 2419 397 2687 759 
Q 2956 1122 2956 1747 
Q 2956 2369 2687 2733 
Q 2419 3097 1959 3097 
z
M 1959 3584 
Q 2709 3584 3137 3096 
Q 3566 2609 3566 1747 
Q 3566 888 3137 398 
Q 2709 -91 1959 -91 
Q 1206 -91 779 398 
Q 353 888 353 1747 
Q 353 2609 779 3096 
Q 1206 3584 1959 3584 
z
" transform="scale(0.015625)"/>
        <path id="DejaVuSans-6b" d="M 581 4863 
L 1159 4863 
L 1159 1991 
L 2875 3500 
L 3609 3500 
L 1753 1863 
L 3688 0 
L 2938 0 
L 1159 1709 
L 1159 0 
L 581 0 
L 581 4863 
z
" transform="scale(0.015625)"/>
        <path id="DejaVuSans-20" transform="scale(0.015625)"/>
        <path id="DejaVuSans-50" d="M 1259 4147 
L 1259 2394 
L 2053 2394 
Q 2494 2394 2734 2622 
Q 2975 2850 2975 3272 
Q 2975 3691 2734 3919 
Q 2494 4147 2053 4147 
L 1259 4147 
z
M 628 4666 
L 2053 4666 
Q 2838 4666 3239 4311 
Q 3641 3956 3641 3272 
Q 3641 2581 3239 2228 
Q 2838 1875 2053 1875 
L 1259 1875 
L 1259 0 
L 628 0 
L 628 4666 
z
" transform="scale(0.015625)"/>
        <path id="DejaVuSans-68" d="M 3513 2113 
L 3513 0 
L 2938 0 
L 2938 2094 
Q 2938 2591 2744 2837 
Q 2550 3084 2163 3084 
Q 1697 3084 1428 2787 
Q 1159 2491 1159 1978 
L 1159 0 
L 581 0 
L 581 4863 
L 1159 4863 
L 1159 2956 
Q 1366 3272 1645 3428 
Q 1925 3584 2291 3584 
Q 2894 3584 3203 3211 
Q 3513 2838 3513 2113 
z
" transform="scale(0.015625)"/>
        <path id="DejaVuSans-41" d="M 2188 4044 
L 1331 1722 
L 3047 1722 
L 2188 4044 
z
M 1831 4666 
L 2547 4666 
L 4325 0 
L 3669 0 
L 3244 1197 
L 1141 1197 
L 716 0 
L 50 0 
L 1831 4666 
z
" transform="scale(0.015625)"/>
       </defs>
       <use xlink:href="#DejaVuSans-53"/>
       <use xlink:href="#DejaVuSans-6d" transform="translate(63.476562 0)"/>
       <use xlink:href="#DejaVuSans-6f" transform="translate(160.888672 0)"/>
       <use xlink:href="#DejaVuSans-6b" transform="translate(222.070312 0)"/>
       <use xlink:href="#DejaVuSans-65" transform="translate(276.355469 0)"/>
       <use xlink:href="#DejaVuSans-20" transform="translate(337.878906 0)"/>
       <use xlink:href="#DejaVuSans-50" transform="translate(369.666016 0)"/>
       <use xlink:href="#DejaVuSans-68" transform="translate(429.96875 0)"/>
       <use xlink:href="#DejaVuSans-61" transform="translate(493.347656 0)"/>
       <use xlink:href="#DejaVuSans-73" transform="translate(554.626953 0)"/>
       <use xlink:href="#DejaVuSans-65" transform="translate(606.726562 0)"/>
       <use xlink:href="#DejaVuSans-20" transform="translate(668.25 0)"/>
       <use xlink:href="#DejaVuSans-41" transform="translate(700.037109 0)"/>
      </g>
     </g>
    </g>
    <g id="xtick_3">
     <g id="line2d_3">
      <g>
       <use xlink:href="#m8769c4ee61" x="317.175962" y="345.389812" style="stroke: #000000; stroke-width: 0.8"/>
      </g>
     </g>
     <g id="text_3">
      <!-- Smoke Phase B -->
      <g transform="translate(251.530063 382.47614) rotate(-20) scale(0.09 -0.09)">
       <use xlink:href="#DejaVuSans-53"/>
       <use xlink:href="#DejaVuSans-6d" transform="translate(63.476562 0)"/>
       <use xlink:href="#DejaVuSans-6f" transform="translate(160.888672 0)"/>
       <use xlink:href="#DejaVuSans-6b" transform="translate(222.070312 0)"/>
       <use xlink:href="#DejaVuSans-65" transform="translate(276.355469 0)"/>
       <use xlink:href="#DejaVuSans-20" transform="translate(337.878906 0)"/>
       <use xlink:href="#DejaVuSans-50" transform="translate(369.666016 0)"/>
       <use xlink:href="#DejaVuSans-68" transform="translate(429.96875 0)"/>
       <use xlink:href="#DejaVuSans-61" transform="translate(493.347656 0)"/>
       <use xlink:href="#DejaVuSans-73" transform="translate(554.626953 0)"/>
       <use xlink:href="#DejaVuSans-65" transform="translate(606.726562 0)"/>
       <use xlink:href="#DejaVuSans-20" transform="translate(668.25 0)"/>
       <use xlink:href="#DejaVuSans-42" transform="translate(700.037109 0)"/>
      </g>
     </g>
    </g>
    <g id="xtick_4">
     <g id="line2d_4">
      <g>
       <use xlink:href="#m8769c4ee61" x="424.483654" y="345.389812" style="stroke: #000000; stroke-width: 0.8"/>
      </g>
     </g>
     <g id="text_4">
      <!-- Smoke Phase C -->
      <g transform="translate(358.734683 382.513656) rotate(-20) scale(0.09 -0.09)">
       <defs>
        <path id="DejaVuSans-43" d="M 4122 4306 
L 4122 3641 
Q 3803 3938 3442 4084 
Q 3081 4231 2675 4231 
Q 1875 4231 1450 3742 
Q 1025 3253 1025 2328 
Q 1025 1406 1450 917 
Q 1875 428 2675 428 
Q 3081 428 3442 575 
Q 3803 722 4122 1019 
L 4122 359 
Q 3791 134 3420 21 
Q 3050 -91 2638 -91 
Q 1578 -91 968 557 
Q 359 1206 359 2328 
Q 359 3453 968 4101 
Q 1578 4750 2638 4750 
Q 3056 4750 3426 4639 
Q 3797 4528 4122 4306 
z
" transform="scale(0.015625)"/>
       </defs>
       <use xlink:href="#DejaVuSans-53"/>
       <use xlink:href="#DejaVuSans-6d" transform="translate(63.476562 0)"/>
       <use xlink:href="#DejaVuSans-6f" transform="translate(160.888672 0)"/>
       <use xlink:href="#DejaVuSans-6b" transform="translate(222.070312 0)"/>
       <use xlink:href="#DejaVuSans-65" transform="translate(276.355469 0)"/>
       <use xlink:href="#DejaVuSans-20" transform="translate(337.878906 0)"/>
       <use xlink:href="#DejaVuSans-50" transform="translate(369.666016 0)"/>
       <use xlink:href="#DejaVuSans-68" transform="translate(429.96875 0)"/>
       <use xlink:href="#DejaVuSans-61" transform="translate(493.347656 0)"/>
       <use xlink:href="#DejaVuSans-73" transform="translate(554.626953 0)"/>
       <use xlink:href="#DejaVuSans-65" transform="translate(606.726562 0)"/>
       <use xlink:href="#DejaVuSans-20" transform="translate(668.25 0)"/>
       <use xlink:href="#DejaVuSans-43" transform="translate(700.037109 0)"/>
      </g>
     </g>
    </g>
    <g id="xtick_5">
     <g id="line2d_5">
      <g>
       <use xlink:href="#m8769c4ee61" x="531.791346" y="345.389812" style="stroke: #000000; stroke-width: 0.8"/>
      </g>
     </g>
     <g id="text_5">
      <!-- Smoke Phase D -->
      <g transform="translate(465.435833 382.734419) rotate(-20) scale(0.09 -0.09)">
       <defs>
        <path id="DejaVuSans-44" d="M 1259 4147 
L 1259 519 
L 2022 519 
Q 2988 519 3436 956 
Q 3884 1394 3884 2338 
Q 3884 3275 3436 3711 
Q 2988 4147 2022 4147 
L 1259 4147 
z
M 628 4666 
L 1925 4666 
Q 3281 4666 3915 4102 
Q 4550 3538 4550 2338 
Q 4550 1131 3912 565 
Q 3275 0 1925 0 
L 628 0 
L 628 4666 
z
" transform="scale(0.015625)"/>
       </defs>
       <use xlink:href="#DejaVuSans-53"/>
       <use xlink:href="#DejaVuSans-6d" transform="translate(63.476562 0)"/>
       <use xlink:href="#DejaVuSans-6f" transform="translate(160.888672 0)"/>
       <use xlink:href="#DejaVuSans-6b" transform="translate(222.070312 0)"/>
       <use xlink:href="#DejaVuSans-65" transform="translate(276.355469 0)"/>
       <use xlink:href="#DejaVuSans-20" transform="translate(337.878906 0)"/>
       <use xlink:href="#DejaVuSans-50" transform="translate(369.666016 0)"/>
       <use xlink:href="#DejaVuSans-68" transform="translate(429.96875 0)"/>
       <use xlink:href="#DejaVuSans-61" transform="translate(493.347656 0)"/>
       <use xlink:href="#DejaVuSans-73" transform="translate(554.626953 0)"/>
       <use xlink:href="#DejaVuSans-65" transform="translate(606.726562 0)"/>
       <use xlink:href="#DejaVuSans-20" transform="translate(668.25 0)"/>
       <use xlink:href="#DejaVuSans-44" transform="translate(700.037109 0)"/>
      </g>
     </g>
    </g>
    <g id="xtick_6">
     <g id="line2d_6">
      <g>
       <use xlink:href="#m8769c4ee61" x="639.099038" y="345.389812" style="stroke: #000000; stroke-width: 0.8"/>
      </g>
     </g>
     <g id="text_6">
      <!-- Large Phase C -->
      <g transform="translate(578.129726 380.774002) rotate(-20) scale(0.09 -0.09)">
       <defs>
        <path id="DejaVuSans-4c" d="M 628 4666 
L 1259 4666 
L 1259 531 
L 3531 531 
L 3531 0 
L 628 0 
L 628 4666 
z
" transform="scale(0.015625)"/>
        <path id="DejaVuSans-72" d="M 2631 2963 
Q 2534 3019 2420 3045 
Q 2306 3072 2169 3072 
Q 1681 3072 1420 2755 
Q 1159 2438 1159 1844 
L 1159 0 
L 581 0 
L 581 3500 
L 1159 3500 
L 1159 2956 
Q 1341 3275 1631 3429 
Q 1922 3584 2338 3584 
Q 2397 3584 2469 3576 
Q 2541 3569 2628 3553 
L 2631 2963 
z
" transform="scale(0.015625)"/>
        <path id="DejaVuSans-67" d="M 2906 1791 
Q 2906 2416 2648 2759 
Q 2391 3103 1925 3103 
Q 1463 3103 1205 2759 
Q 947 2416 947 1791 
Q 947 1169 1205 825 
Q 1463 481 1925 481 
Q 2391 481 2648 825 
Q 2906 1169 2906 1791 
z
M 3481 434 
Q 3481 -459 3084 -895 
Q 2688 -1331 1869 -1331 
Q 1566 -1331 1297 -1286 
Q 1028 -1241 775 -1147 
L 775 -588 
Q 1028 -725 1275 -790 
Q 1522 -856 1778 -856 
Q 2344 -856 2625 -561 
Q 2906 -266 2906 331 
L 2906 616 
Q 2728 306 2450 153 
Q 2172 0 1784 0 
Q 1141 0 747 490 
Q 353 981 353 1791 
Q 353 2603 747 3093 
Q 1141 3584 1784 3584 
Q 2172 3584 2450 3431 
Q 2728 3278 2906 2969 
L 2906 3500 
L 3481 3500 
L 3481 434 
z
" transform="scale(0.015625)"/>
       </defs>
       <use xlink:href="#DejaVuSans-4c"/>
       <use xlink:href="#DejaVuSans-61" transform="translate(55.712891 0)"/>
       <use xlink:href="#DejaVuSans-72" transform="translate(116.992188 0)"/>
       <use xlink:href="#DejaVuSans-67" transform="translate(156.355469 0)"/>
       <use xlink:href="#DejaVuSans-65" transform="translate(219.832031 0)"/>
       <use xlink:href="#DejaVuSans-20" transform="translate(281.355469 0)"/>
       <use xlink:href="#DejaVuSans-50" transform="translate(313.142578 0)"/>
       <use xlink:href="#DejaVuSans-68" transform="translate(373.445312 0)"/>
       <use xlink:href="#DejaVuSans-61" transform="translate(436.824219 0)"/>
       <use xlink:href="#DejaVuSans-73" transform="translate(498.103516 0)"/>
       <use xlink:href="#DejaVuSans-65" transform="translate(550.203125 0)"/>
       <use xlink:href="#DejaVuSans-20" transform="translate(611.726562 0)"/>
       <use xlink:href="#DejaVuSans-43" transform="translate(643.513672 0)"/>
      </g>
     </g>
    </g>
    <g id="xtick_7">
     <g id="line2d_7">
      <g>
       <use xlink:href="#m8769c4ee61" x="746.406731" y="345.389812" style="stroke: #000000; stroke-width: 0.8"/>
      </g>
     </g>
     <g id="text_7">
      <!-- Large Phase D -->
      <g transform="translate(684.830876 380.994766) rotate(-20) scale(0.09 -0.09)">
       <use xlink:href="#DejaVuSans-4c"/>
       <use xlink:href="#DejaVuSans-61" transform="translate(55.712891 0)"/>
       <use xlink:href="#DejaVuSans-72" transform="translate(116.992188 0)"/>
       <use xlink:href="#DejaVuSans-67" transform="translate(156.355469 0)"/>
       <use xlink:href="#DejaVuSans-65" transform="translate(219.832031 0)"/>
       <use xlink:href="#DejaVuSans-20" transform="translate(281.355469 0)"/>
       <use xlink:href="#DejaVuSans-50" transform="translate(313.142578 0)"/>
       <use xlink:href="#DejaVuSans-68" transform="translate(373.445312 0)"/>
       <use xlink:href="#DejaVuSans-61" transform="translate(436.824219 0)"/>
       <use xlink:href="#DejaVuSans-73" transform="translate(498.103516 0)"/>
       <use xlink:href="#DejaVuSans-65" transform="translate(550.203125 0)"/>
       <use xlink:href="#DejaVuSans-20" transform="translate(611.726562 0)"/>
       <use xlink:href="#DejaVuSans-44" transform="translate(643.513672 0)"/>
      </g>
     </g>
    </g>
    <g id="xtick_8">
     <g id="line2d_8">
      <g>
       <use xlink:href="#m8769c4ee61" x="853.714423" y="345.389812" style="stroke: #000000; stroke-width: 0.8"/>
      </g>
     </g>
     <g id="text_8">
      <!-- Dedicated Phase D -->
      <g transform="translate(772.779432 388.040915) rotate(-20) scale(0.09 -0.09)">
       <defs>
        <path id="DejaVuSans-64" d="M 2906 2969 
L 2906 4863 
L 3481 4863 
L 3481 0 
L 2906 0 
L 2906 525 
Q 2725 213 2448 61 
Q 2172 -91 1784 -91 
Q 1150 -91 751 415 
Q 353 922 353 1747 
Q 353 2572 751 3078 
Q 1150 3584 1784 3584 
Q 2172 3584 2448 3432 
Q 2725 3281 2906 2969 
z
M 947 1747 
Q 947 1113 1208 752 
Q 1469 391 1925 391 
Q 2381 391 2643 752 
Q 2906 1113 2906 1747 
Q 2906 2381 2643 2742 
Q 2381 3103 1925 3103 
Q 1469 3103 1208 2742 
Q 947 2381 947 1747 
z
" transform="scale(0.015625)"/>
        <path id="DejaVuSans-63" d="M 3122 3366 
L 3122 2828 
Q 2878 2963 2633 3030 
Q 2388 3097 2138 3097 
Q 1578 3097 1268 2742 
Q 959 2388 959 1747 
Q 959 1106 1268 751 
Q 1578 397 2138 397 
Q 2388 397 2633 464 
Q 2878 531 3122 666 
L 3122 134 
Q 2881 22 2623 -34 
Q 2366 -91 2075 -91 
Q 1284 -91 818 406 
Q 353 903 353 1747 
Q 353 2603 823 3093 
Q 1294 3584 2113 3584 
Q 2378 3584 2631 3529 
Q 2884 3475 3122 3366 
z
" transform="scale(0.015625)"/>
        <path id="DejaVuSans-74" d="M 1172 4494 
L 1172 3500 
L 2356 3500 
L 2356 3053 
L 1172 3053 
L 1172 1153 
Q 1172 725 1289 603 
Q 1406 481 1766 481 
L 2356 481 
L 2356 0 
L 1766 0 
Q 1100 0 847 248 
Q 594 497 594 1153 
L 594 3053 
L 172 3053 
L 172 3500 
L 594 3500 
L 594 4494 
L 1172 4494 
z
" transform="scale(0.015625)"/>
       </defs>
       <use xlink:href="#DejaVuSans-44"/>
       <use xlink:href="#DejaVuSans-65" transform="translate(77.001953 0)"/>
       <use xlink:href="#DejaVuSans-64" transform="translate(138.525391 0)"/>
       <use xlink:href="#DejaVuSans-69" transform="translate(202.001953 0)"/>
       <use xlink:href="#DejaVuSans-63" transform="translate(229.785156 0)"/>
       <use xlink:href="#DejaVuSans-61" transform="translate(284.765625 0)"/>
       <use xlink:href="#DejaVuSans-74" transform="translate(346.044922 0)"/>
       <use xlink:href="#DejaVuSans-65" transform="translate(385.253906 0)"/>
       <use xlink:href="#DejaVuSans-64" transform="translate(446.777344 0)"/>
       <use xlink:href="#DejaVuSans-20" transform="translate(510.253906 0)"/>
       <use xlink:href="#DejaVuSans-50" transform="translate(542.041016 0)"/>
       <use xlink:href="#DejaVuSans-68" transform="translate(602.34375 0)"/>
       <use xlink:href="#DejaVuSans-61" transform="translate(665.722656 0)"/>
       <use xlink:href="#DejaVuSans-73" transform="translate(727.001953 0)"/>
       <use xlink:href="#DejaVuSans-65" transform="translate(779.101562 0)"/>
       <use xlink:href="#DejaVuSans-20" transform="translate(840.625 0)"/>
       <use xlink:href="#DejaVuSans-44" transform="translate(872.412109 0)"/>
      </g>
     </g>
    </g>
   </g>
   <g id="matplotlib.axis_2">
    <g id="ytick_1">
     <g id="line2d_9">
      <path d="M 59.6375 303.707146 
L 896.6375 303.707146 
" clip-path="url(#pa141612df6)" style="fill: none; stroke: #b0b0b0; stroke-opacity: 0.22; stroke-width: 0.8; stroke-linecap: square"/>
     </g>
     <g id="line2d_10">
      <defs>
       <path id="m628807acab" d="M 0 0 
L -3.5 0 
" style="stroke: #000000; stroke-width: 0.8"/>
      </defs>
      <g>
       <use xlink:href="#m628807acab" x="59.6375" y="303.707146" style="stroke: #000000; stroke-width: 0.8"/>
      </g>
     </g>
     <g id="text_9">
      <!-- unknown -->
      <g transform="translate(7.2 307.506365) scale(0.1 -0.1)">
       <defs>
        <path id="DejaVuSans-75" d="M 544 1381 
L 544 3500 
L 1119 3500 
L 1119 1403 
Q 1119 906 1312 657 
Q 1506 409 1894 409 
Q 2359 409 2629 706 
Q 2900 1003 2900 1516 
L 2900 3500 
L 3475 3500 
L 3475 0 
L 2900 0 
L 2900 538 
Q 2691 219 2414 64 
Q 2138 -91 1772 -91 
Q 1169 -91 856 284 
Q 544 659 544 1381 
z
M 1991 3584 
L 1991 3584 
z
" transform="scale(0.015625)"/>
        <path id="DejaVuSans-77" d="M 269 3500 
L 844 3500 
L 1563 769 
L 2278 3500 
L 2956 3500 
L 3675 769 
L 4391 3500 
L 4966 3500 
L 4050 0 
L 3372 0 
L 2619 2869 
L 1863 0 
L 1184 0 
L 269 3500 
z
" transform="scale(0.015625)"/>
       </defs>
       <use xlink:href="#DejaVuSans-75"/>
       <use xlink:href="#DejaVuSans-6e" transform="translate(63.378906 0)"/>
       <use xlink:href="#DejaVuSans-6b" transform="translate(126.757812 0)"/>
       <use xlink:href="#DejaVuSans-6e" transform="translate(184.667969 0)"/>
       <use xlink:href="#DejaVuSans-6f" transform="translate(248.046875 0)"/>
       <use xlink:href="#DejaVuSans-77" transform="translate(309.228516 0)"/>
       <use xlink:href="#DejaVuSans-6e" transform="translate(391.015625 0)"/>
      </g>
     </g>
    </g>
    <g id="ytick_2">
     <g id="line2d_11">
      <path d="M 59.6375 184.613812 
L 896.6375 184.613812 
" clip-path="url(#pa141612df6)" style="fill: none; stroke: #b0b0b0; stroke-opacity: 0.22; stroke-width: 0.8; stroke-linecap: square"/>
     </g>
     <g id="line2d_12">
      <g>
       <use xlink:href="#m628807acab" x="59.6375" y="184.613812" style="stroke: #000000; stroke-width: 0.8"/>
      </g>
     </g>
     <g id="text_10">
      <!-- testmini -->
      <g transform="translate(11.8 188.413031) scale(0.1 -0.1)">
       <use xlink:href="#DejaVuSans-74"/>
       <use xlink:href="#DejaVuSans-65" transform="translate(39.208984 0)"/>
       <use xlink:href="#DejaVuSans-73" transform="translate(100.732422 0)"/>
       <use xlink:href="#DejaVuSans-74" transform="translate(152.832031 0)"/>
       <use xlink:href="#DejaVuSans-6d" transform="translate(192.041016 0)"/>
       <use xlink:href="#DejaVuSans-69" transform="translate(289.453125 0)"/>
       <use xlink:href="#DejaVuSans-6e" transform="translate(317.236328 0)"/>
       <use xlink:href="#DejaVuSans-69" transform="translate(380.615234 0)"/>
      </g>
     </g>
    </g>
    <g id="ytick_3">
     <g id="line2d_13">
      <path d="M 59.6375 65.520479 
L 896.6375 65.520479 
" clip-path="url(#pa141612df6)" style="fill: none; stroke: #b0b0b0; stroke-opacity: 0.22; stroke-width: 0.8; stroke-linecap: square"/>
     </g>
     <g id="line2d_14">
      <g>
       <use xlink:href="#m628807acab" x="59.6375" y="65.520479" style="stroke: #000000; stroke-width: 0.8"/>
      </g>
     </g>
     <g id="text_11">
      <!-- test -->
      <g transform="translate(33.434375 69.319698) scale(0.1 -0.1)">
       <use xlink:href="#DejaVuSans-74"/>
       <use xlink:href="#DejaVuSans-65" transform="translate(39.208984 0)"/>
       <use xlink:href="#DejaVuSans-73" transform="translate(100.732422 0)"/>
       <use xlink:href="#DejaVuSans-74" transform="translate(152.832031 0)"/>
      </g>
     </g>
    </g>
   </g>
   <g id="line2d_15">
    <path d="M 102.560577 303.707146 
L 209.868269 184.613812 
L 317.175962 184.613812 
L 424.483654 184.613812 
L 531.791346 184.613812 
L 639.099038 65.520479 
L 746.406731 65.520479 
L 853.714423 65.520479 
" clip-path="url(#pa141612df6)" style="fill: none; stroke: #1f77b4; stroke-width: 3; stroke-linecap: square"/>
    <defs>
     <path id="me200e1138b" d="M 0 4 
C 1.060812 4 2.078319 3.578535 2.828427 2.828427 
C 3.578535 2.078319 4 1.060812 4 0 
C 4 -1.060812 3.578535 -2.078319 2.828427 -2.828427 
C 2.078319 -3.578535 1.060812 -4 0 -4 
C -1.060812 -4 -2.078319 -3.578535 -2.828427 -2.828427 
C -3.578535 -2.078319 -4 -1.060812 -4 0 
C -4 1.060812 -3.578535 2.078319 -2.828427 2.828427 
C -2.078319 3.578535 -1.060812 4 0 4 
z
" style="stroke: #1f77b4"/>
    </defs>
    <g clip-path="url(#pa141612df6)">
     <use xlink:href="#me200e1138b" x="102.560577" y="303.707146" style="fill: #1f77b4; stroke: #1f77b4"/>
     <use xlink:href="#me200e1138b" x="209.868269" y="184.613812" style="fill: #1f77b4; stroke: #1f77b4"/>
     <use xlink:href="#me200e1138b" x="317.175962" y="184.613812" style="fill: #1f77b4; stroke: #1f77b4"/>
     <use xlink:href="#me200e1138b" x="424.483654" y="184.613812" style="fill: #1f77b4; stroke: #1f77b4"/>
     <use xlink:href="#me200e1138b" x="531.791346" y="184.613812" style="fill: #1f77b4; stroke: #1f77b4"/>
     <use xlink:href="#me200e1138b" x="639.099038" y="65.520479" style="fill: #1f77b4; stroke: #1f77b4"/>
     <use xlink:href="#me200e1138b" x="746.406731" y="65.520479" style="fill: #1f77b4; stroke: #1f77b4"/>
     <use xlink:href="#me200e1138b" x="853.714423" y="65.520479" style="fill: #1f77b4; stroke: #1f77b4"/>
    </g>
   </g>
   <g id="line2d_16">
    <path d="M 102.560577 303.707146 
L 209.868269 184.613812 
L 317.175962 184.613812 
L 424.483654 184.613812 
L 531.791346 184.613812 
L 639.099038 184.613812 
L 746.406731 184.613812 
L 853.714423 184.613812 
" clip-path="url(#pa141612df6)" style="fill: none; stroke-dasharray: 8.14,3.52; stroke-dashoffset: 0; stroke: #ff7f0e; stroke-width: 2.2"/>
    <defs>
     <path id="m21ab7bb867" d="M 0 3.5 
C 0.928211 3.5 1.81853 3.131218 2.474874 2.474874 
C 3.131218 1.81853 3.5 0.928211 3.5 0 
C 3.5 -0.928211 3.131218 -1.81853 2.474874 -2.474874 
C 1.81853 -3.131218 0.928211 -3.5 0 -3.5 
C -0.928211 -3.5 -1.81853 -3.131218 -2.474874 -2.474874 
C -3.131218 -1.81853 -3.5 -0.928211 -3.5 0 
C -3.5 0.928211 -3.131218 1.81853 -2.474874 2.474874 
C -1.81853 3.131218 -0.928211 3.5 0 3.5 
z
" style="stroke: #ff7f0e"/>
    </defs>
    <g clip-path="url(#pa141612df6)">
     <use xlink:href="#m21ab7bb867" x="102.560577" y="303.707146" style="fill: #ffffff; stroke: #ff7f0e"/>
     <use xlink:href="#m21ab7bb867" x="209.868269" y="184.613812" style="fill: #ffffff; stroke: #ff7f0e"/>
     <use xlink:href="#m21ab7bb867" x="317.175962" y="184.613812" style="fill: #ffffff; stroke: #ff7f0e"/>
     <use xlink:href="#m21ab7bb867" x="424.483654" y="184.613812" style="fill: #ffffff; stroke: #ff7f0e"/>
     <use xlink:href="#m21ab7bb867" x="531.791346" y="184.613812" style="fill: #ffffff; stroke: #ff7f0e"/>
     <use xlink:href="#m21ab7bb867" x="639.099038" y="184.613812" style="fill: #ffffff; stroke: #ff7f0e"/>
     <use xlink:href="#m21ab7bb867" x="746.406731" y="184.613812" style="fill: #ffffff; stroke: #ff7f0e"/>
     <use xlink:href="#m21ab7bb867" x="853.714423" y="184.613812" style="fill: #ffffff; stroke: #ff7f0e"/>
    </g>
   </g>
   <g id="patch_6">
    <path d="M 59.6375 345.389812 
L 59.6375 23.837812 
" style="fill: none; stroke: #000000; stroke-width: 0.8; stroke-linejoin: miter; stroke-linecap: square"/>
   </g>
   <g id="patch_7">
    <path d="M 896.6375 345.389812 
L 896.6375 23.837812 
" style="fill: none; stroke: #000000; stroke-width: 0.8; stroke-linejoin: miter; stroke-linecap: square"/>
   </g>
   <g id="patch_8">
    <path d="M 59.6375 345.389812 
L 896.6375 345.389812 
" style="fill: none; stroke: #000000; stroke-width: 0.8; stroke-linejoin: miter; stroke-linecap: square"/>
   </g>
   <g id="patch_9">
    <path d="M 59.6375 23.837812 
L 896.6375 23.837812 
" style="fill: none; stroke: #000000; stroke-width: 0.8; stroke-linejoin: miter; stroke-linecap: square"/>
   </g>
   <g id="text_12">
    <g id="patch_10">
     <path d="M 83.905264 277.060746 
L 121.215889 277.060746 
Q 123.151889 277.060746 123.151889 275.124746 
L 123.151889 266.607996 
Q 123.151889 264.671996 121.215889 264.671996 
L 83.905264 264.671996 
Q 81.969264 264.671996 81.969264 266.607996 
L 81.969264 275.124746 
Q 81.969264 277.060746 83.905264 277.060746 
z
" style="fill: #ffffff; opacity: 0.95; stroke: #cccccc; stroke-linejoin: miter"/>
    </g>
    <!-- Baseline -->
    <g transform="translate(83.905264 273.294621) scale(0.088 -0.088)">
     <use xlink:href="#DejaVuSans-42"/>
     <use xlink:href="#DejaVuSans-61" transform="translate(68.603516 0)"/>
     <use xlink:href="#DejaVuSans-73" transform="translate(129.882812 0)"/>
     <use xlink:href="#DejaVuSans-65" transform="translate(181.982422 0)"/>
     <use xlink:href="#DejaVuSans-6c" transform="translate(243.505859 0)"/>
     <use xlink:href="#DejaVuSans-69" transform="translate(271.289062 0)"/>
     <use xlink:href="#DejaVuSans-6e" transform="translate(299.072266 0)"/>
     <use xlink:href="#DejaVuSans-65" transform="translate(362.451172 0)"/>
    </g>
   </g>
   <g id="text_13">
    <g id="patch_11">
     <path d="M 176.057019 230.794562 
L 243.679519 230.794562 
Q 245.615519 230.794562 245.615519 228.858562 
L 245.615519 220.341812 
Q 245.615519 218.405812 243.679519 218.405812 
L 176.057019 218.405812 
Q 174.121019 218.405812 174.121019 220.341812 
L 174.121019 228.858562 
Q 174.121019 230.794562 176.057019 230.794562 
z
" style="fill: #ffffff; opacity: 0.95; stroke: #cccccc; stroke-linejoin: miter"/>
    </g>
    <!-- Smoke Phase A -->
    <g transform="translate(176.057019 227.028437) scale(0.088 -0.088)">
     <use xlink:href="#DejaVuSans-53"/>
     <use xlink:href="#DejaVuSans-6d" transform="translate(63.476562 0)"/>
     <use xlink:href="#DejaVuSans-6f" transform="translate(160.888672 0)"/>
     <use xlink:href="#DejaVuSans-6b" transform="translate(222.070312 0)"/>
     <use xlink:href="#DejaVuSans-65" transform="translate(276.355469 0)"/>
     <use xlink:href="#DejaVuSans-20" transform="translate(337.878906 0)"/>
     <use xlink:href="#DejaVuSans-50" transform="translate(369.666016 0)"/>
     <use xlink:href="#DejaVuSans-68" transform="translate(429.96875 0)"/>
     <use xlink:href="#DejaVuSans-61" transform="translate(493.347656 0)"/>
     <use xlink:href="#DejaVuSans-73" transform="translate(554.626953 0)"/>
     <use xlink:href="#DejaVuSans-65" transform="translate(606.726562 0)"/>
     <use xlink:href="#DejaVuSans-20" transform="translate(668.25 0)"/>
     <use xlink:href="#DejaVuSans-41" transform="translate(700.037109 0)"/>
    </g>
   </g>
   <g id="text_14">
    <g id="patch_12">
     <path d="M 283.355774 157.967412 
L 350.996149 157.967412 
Q 352.932149 157.967412 352.932149 156.031412 
L 352.932149 147.514662 
Q 352.932149 145.578662 350.996149 145.578662 
L 283.355774 145.578662 
Q 281.419774 145.578662 281.419774 147.514662 
L 281.419774 156.031412 
Q 281.419774 157.967412 283.355774 157.967412 
z
" style="fill: #ffffff; opacity: 0.95; stroke: #cccccc; stroke-linejoin: miter"/>
    </g>
    <!-- Smoke Phase B -->
    <g transform="translate(283.355774 154.201287) scale(0.088 -0.088)">
     <use xlink:href="#DejaVuSans-53"/>
     <use xlink:href="#DejaVuSans-6d" transform="translate(63.476562 0)"/>
     <use xlink:href="#DejaVuSans-6f" transform="translate(160.888672 0)"/>
     <use xlink:href="#DejaVuSans-6b" transform="translate(222.070312 0)"/>
     <use xlink:href="#DejaVuSans-65" transform="translate(276.355469 0)"/>
     <use xlink:href="#DejaVuSans-20" transform="translate(337.878906 0)"/>
     <use xlink:href="#DejaVuSans-50" transform="translate(369.666016 0)"/>
     <use xlink:href="#DejaVuSans-68" transform="translate(429.96875 0)"/>
     <use xlink:href="#DejaVuSans-61" transform="translate(493.347656 0)"/>
     <use xlink:href="#DejaVuSans-73" transform="translate(554.626953 0)"/>
     <use xlink:href="#DejaVuSans-65" transform="translate(606.726562 0)"/>
     <use xlink:href="#DejaVuSans-20" transform="translate(668.25 0)"/>
     <use xlink:href="#DejaVuSans-42" transform="translate(700.037109 0)"/>
    </g>
   </g>
   <g id="text_15">
    <!-- resume selector -->
    <g style="fill: #555555" transform="translate(285.741962 331.070727) scale(0.078 -0.078)">
     <use xlink:href="#DejaVuSans-72"/>
     <use xlink:href="#DejaVuSans-65" transform="translate(38.863281 0)"/>
     <use xlink:href="#DejaVuSans-73" transform="translate(100.386719 0)"/>
     <use xlink:href="#DejaVuSans-75" transform="translate(152.486328 0)"/>
     <use xlink:href="#DejaVuSans-6d" transform="translate(215.865234 0)"/>
     <use xlink:href="#DejaVuSans-65" transform="translate(313.277344 0)"/>
     <use xlink:href="#DejaVuSans-20" transform="translate(374.800781 0)"/>
     <use xlink:href="#DejaVuSans-73" transform="translate(406.587891 0)"/>
     <use xlink:href="#DejaVuSans-65" transform="translate(458.6875 0)"/>
     <use xlink:href="#DejaVuSans-6c" transform="translate(520.210938 0)"/>
     <use xlink:href="#DejaVuSans-65" transform="translate(547.994141 0)"/>
     <use xlink:href="#DejaVuSans-63" transform="translate(609.517578 0)"/>
     <use xlink:href="#DejaVuSans-74" transform="translate(664.498047 0)"/>
     <use xlink:href="#DejaVuSans-6f" transform="translate(703.707031 0)"/>
     <use xlink:href="#DejaVuSans-72" transform="translate(764.888672 0)"/>
    </g>
   </g>
   <g id="text_16">
    <g id="patch_13">
     <path d="M 390.609841 230.794562 
L 458.357466 230.794562 
Q 460.293466 230.794562 460.293466 228.858562 
L 460.293466 220.341812 
Q 460.293466 218.405812 458.357466 218.405812 
L 390.609841 218.405812 
Q 388.673841 218.405812 388.673841 220.341812 
L 388.673841 228.858562 
Q 388.673841 230.794562 390.609841 230.794562 
z
" style="fill: #ffffff; opacity: 0.95; stroke: #cccccc; stroke-linejoin: miter"/>
    </g>
    <!-- Smoke Phase C -->
    <g transform="translate(390.609841 227.028437) scale(0.088 -0.088)">
     <use xlink:href="#DejaVuSans-53"/>
     <use xlink:href="#DejaVuSans-6d" transform="translate(63.476562 0)"/>
     <use xlink:href="#DejaVuSans-6f" transform="translate(160.888672 0)"/>
     <use xlink:href="#DejaVuSans-6b" transform="translate(222.070312 0)"/>
     <use xlink:href="#DejaVuSans-65" transform="translate(276.355469 0)"/>
     <use xlink:href="#DejaVuSans-20" transform="translate(337.878906 0)"/>
     <use xlink:href="#DejaVuSans-50" transform="translate(369.666016 0)"/>
     <use xlink:href="#DejaVuSans-68" transform="translate(429.96875 0)"/>
     <use xlink:href="#DejaVuSans-61" transform="translate(493.347656 0)"/>
     <use xlink:href="#DejaVuSans-73" transform="translate(554.626953 0)"/>
     <use xlink:href="#DejaVuSans-65" transform="translate(606.726562 0)"/>
     <use xlink:href="#DejaVuSans-20" transform="translate(668.25 0)"/>
     <use xlink:href="#DejaVuSans-43" transform="translate(700.037109 0)"/>
    </g>
   </g>
   <g id="text_17">
    <!-- resume selector -->
    <g style="fill: #555555" transform="translate(393.049654 331.070727) scale(0.078 -0.078)">
     <use xlink:href="#DejaVuSans-72"/>
     <use xlink:href="#DejaVuSans-65" transform="translate(38.863281 0)"/>
     <use xlink:href="#DejaVuSans-73" transform="translate(100.386719 0)"/>
     <use xlink:href="#DejaVuSans-75" transform="translate(152.486328 0)"/>
     <use xlink:href="#DejaVuSans-6d" transform="translate(215.865234 0)"/>
     <use xlink:href="#DejaVuSans-65" transform="translate(313.277344 0)"/>
     <use xlink:href="#DejaVuSans-20" transform="translate(374.800781 0)"/>
     <use xlink:href="#DejaVuSans-73" transform="translate(406.587891 0)"/>
     <use xlink:href="#DejaVuSans-65" transform="translate(458.6875 0)"/>
     <use xlink:href="#DejaVuSans-6c" transform="translate(520.210938 0)"/>
     <use xlink:href="#DejaVuSans-65" transform="translate(547.994141 0)"/>
     <use xlink:href="#DejaVuSans-63" transform="translate(609.517578 0)"/>
     <use xlink:href="#DejaVuSans-74" transform="translate(664.498047 0)"/>
     <use xlink:href="#DejaVuSans-6f" transform="translate(703.707031 0)"/>
     <use xlink:href="#DejaVuSans-72" transform="translate(764.888672 0)"/>
    </g>
   </g>
   <g id="text_18">
    <g id="patch_14">
     <path d="M 497.601971 157.967412 
L 565.980721 157.967412 
Q 567.916721 157.967412 567.916721 156.031412 
L 567.916721 147.514662 
Q 567.916721 145.578662 565.980721 145.578662 
L 497.601971 145.578662 
Q 495.665971 145.578662 495.665971 147.514662 
L 495.665971 156.031412 
Q 495.665971 157.967412 497.601971 157.967412 
z
" style="fill: #ffffff; opacity: 0.95; stroke: #cccccc; stroke-linejoin: miter"/>
    </g>
    <!-- Smoke Phase D -->
    <g transform="translate(497.601971 154.201287) scale(0.088 -0.088)">
     <use xlink:href="#DejaVuSans-53"/>
     <use xlink:href="#DejaVuSans-6d" transform="translate(63.476562 0)"/>
     <use xlink:href="#DejaVuSans-6f" transform="translate(160.888672 0)"/>
     <use xlink:href="#DejaVuSans-6b" transform="translate(222.070312 0)"/>
     <use xlink:href="#DejaVuSans-65" transform="translate(276.355469 0)"/>
     <use xlink:href="#DejaVuSans-20" transform="translate(337.878906 0)"/>
     <use xlink:href="#DejaVuSans-50" transform="translate(369.666016 0)"/>
     <use xlink:href="#DejaVuSans-68" transform="translate(429.96875 0)"/>
     <use xlink:href="#DejaVuSans-61" transform="translate(493.347656 0)"/>
     <use xlink:href="#DejaVuSans-73" transform="translate(554.626953 0)"/>
     <use xlink:href="#DejaVuSans-65" transform="translate(606.726562 0)"/>
     <use xlink:href="#DejaVuSans-20" transform="translate(668.25 0)"/>
     <use xlink:href="#DejaVuSans-44" transform="translate(700.037109 0)"/>
    </g>
   </g>
   <g id="text_19">
    <!-- resume selector -->
    <g style="fill: #555555" transform="translate(500.357346 331.070727) scale(0.078 -0.078)">
     <use xlink:href="#DejaVuSans-72"/>
     <use xlink:href="#DejaVuSans-65" transform="translate(38.863281 0)"/>
     <use xlink:href="#DejaVuSans-73" transform="translate(100.386719 0)"/>
     <use xlink:href="#DejaVuSans-75" transform="translate(152.486328 0)"/>
     <use xlink:href="#DejaVuSans-6d" transform="translate(215.865234 0)"/>
     <use xlink:href="#DejaVuSans-65" transform="translate(313.277344 0)"/>
     <use xlink:href="#DejaVuSans-20" transform="translate(374.800781 0)"/>
     <use xlink:href="#DejaVuSans-73" transform="translate(406.587891 0)"/>
     <use xlink:href="#DejaVuSans-65" transform="translate(458.6875 0)"/>
     <use xlink:href="#DejaVuSans-6c" transform="translate(520.210938 0)"/>
     <use xlink:href="#DejaVuSans-65" transform="translate(547.994141 0)"/>
     <use xlink:href="#DejaVuSans-63" transform="translate(609.517578 0)"/>
     <use xlink:href="#DejaVuSans-74" transform="translate(664.498047 0)"/>
     <use xlink:href="#DejaVuSans-6f" transform="translate(703.707031 0)"/>
     <use xlink:href="#DejaVuSans-72" transform="translate(764.888672 0)"/>
    </g>
   </g>
   <g id="text_20">
    <g id="patch_15">
     <path d="M 607.711913 111.701229 
L 670.486163 111.701229 
Q 672.422163 111.701229 672.422163 109.765229 
L 672.422163 101.248479 
Q 672.422163 99.312479 670.486163 99.312479 
L 607.711913 99.312479 
Q 605.775913 99.312479 605.775913 101.248479 
L 605.775913 109.765229 
Q 605.775913 111.701229 607.711913 111.701229 
z
" style="fill: #ffffff; opacity: 0.95; stroke: #cccccc; stroke-linejoin: miter"/>
    </g>
    <!-- Large Phase C -->
    <g transform="translate(607.711913 107.935104) scale(0.088 -0.088)">
     <use xlink:href="#DejaVuSans-4c"/>
     <use xlink:href="#DejaVuSans-61" transform="translate(55.712891 0)"/>
     <use xlink:href="#DejaVuSans-72" transform="translate(116.992188 0)"/>
     <use xlink:href="#DejaVuSans-67" transform="translate(156.355469 0)"/>
     <use xlink:href="#DejaVuSans-65" transform="translate(219.832031 0)"/>
     <use xlink:href="#DejaVuSans-20" transform="translate(281.355469 0)"/>
     <use xlink:href="#DejaVuSans-50" transform="translate(313.142578 0)"/>
     <use xlink:href="#DejaVuSans-68" transform="translate(373.445312 0)"/>
     <use xlink:href="#DejaVuSans-61" transform="translate(436.824219 0)"/>
     <use xlink:href="#DejaVuSans-73" transform="translate(498.103516 0)"/>
     <use xlink:href="#DejaVuSans-65" transform="translate(550.203125 0)"/>
     <use xlink:href="#DejaVuSans-20" transform="translate(611.726562 0)"/>
     <use xlink:href="#DejaVuSans-43" transform="translate(643.513672 0)"/>
    </g>
   </g>
   <g id="text_21">
    <!-- warm-start -->
    <g style="fill: #555555" transform="translate(617.69596 331.070727) scale(0.078 -0.078)">
     <defs>
      <path id="DejaVuSans-2d" d="M 313 2009 
L 1997 2009 
L 1997 1497 
L 313 1497 
L 313 2009 
z
" transform="scale(0.015625)"/>
     </defs>
     <use xlink:href="#DejaVuSans-77"/>
     <use xlink:href="#DejaVuSans-61" transform="translate(81.787109 0)"/>
     <use xlink:href="#DejaVuSans-72" transform="translate(143.066406 0)"/>
     <use xlink:href="#DejaVuSans-6d" transform="translate(182.429688 0)"/>
     <use xlink:href="#DejaVuSans-2d" transform="translate(279.841797 0)"/>
     <use xlink:href="#DejaVuSans-73" transform="translate(315.925781 0)"/>
     <use xlink:href="#DejaVuSans-74" transform="translate(368.025391 0)"/>
     <use xlink:href="#DejaVuSans-61" transform="translate(407.234375 0)"/>
     <use xlink:href="#DejaVuSans-72" transform="translate(468.513672 0)"/>
     <use xlink:href="#DejaVuSans-74" transform="translate(509.626953 0)"/>
    </g>
   </g>
   <g id="text_22">
    <g id="patch_16">
     <path d="M 714.704043 38.874079 
L 778.109418 38.874079 
Q 780.045418 38.874079 780.045418 36.938079 
L 780.045418 28.421329 
Q 780.045418 26.485329 778.109418 26.485329 
L 714.704043 26.485329 
Q 712.768043 26.485329 712.768043 28.421329 
L 712.768043 36.938079 
Q 712.768043 38.874079 714.704043 38.874079 
z
" style="fill: #ffffff; opacity: 0.95; stroke: #cccccc; stroke-linejoin: miter"/>
    </g>
    <!-- Large Phase D -->
    <g transform="translate(714.704043 35.107954) scale(0.088 -0.088)">
     <use xlink:href="#DejaVuSans-4c"/>
     <use xlink:href="#DejaVuSans-61" transform="translate(55.712891 0)"/>
     <use xlink:href="#DejaVuSans-72" transform="translate(116.992188 0)"/>
     <use xlink:href="#DejaVuSans-67" transform="translate(156.355469 0)"/>
     <use xlink:href="#DejaVuSans-65" transform="translate(219.832031 0)"/>
     <use xlink:href="#DejaVuSans-20" transform="translate(281.355469 0)"/>
     <use xlink:href="#DejaVuSans-50" transform="translate(313.142578 0)"/>
     <use xlink:href="#DejaVuSans-68" transform="translate(373.445312 0)"/>
     <use xlink:href="#DejaVuSans-61" transform="translate(436.824219 0)"/>
     <use xlink:href="#DejaVuSans-73" transform="translate(498.103516 0)"/>
     <use xlink:href="#DejaVuSans-65" transform="translate(550.203125 0)"/>
     <use xlink:href="#DejaVuSans-20" transform="translate(611.726562 0)"/>
     <use xlink:href="#DejaVuSans-44" transform="translate(643.513672 0)"/>
    </g>
   </g>
   <g id="text_23">
    <!-- resume selector -->
    <g style="fill: #555555" transform="translate(714.972731 331.070727) scale(0.078 -0.078)">
     <use xlink:href="#DejaVuSans-72"/>
     <use xlink:href="#DejaVuSans-65" transform="translate(38.863281 0)"/>
     <use xlink:href="#DejaVuSans-73" transform="translate(100.386719 0)"/>
     <use xlink:href="#DejaVuSans-75" transform="translate(152.486328 0)"/>
     <use xlink:href="#DejaVuSans-6d" transform="translate(215.865234 0)"/>
     <use xlink:href="#DejaVuSans-65" transform="translate(313.277344 0)"/>
     <use xlink:href="#DejaVuSans-20" transform="translate(374.800781 0)"/>
     <use xlink:href="#DejaVuSans-73" transform="translate(406.587891 0)"/>
     <use xlink:href="#DejaVuSans-65" transform="translate(458.6875 0)"/>
     <use xlink:href="#DejaVuSans-6c" transform="translate(520.210938 0)"/>
     <use xlink:href="#DejaVuSans-65" transform="translate(547.994141 0)"/>
     <use xlink:href="#DejaVuSans-63" transform="translate(609.517578 0)"/>
     <use xlink:href="#DejaVuSans-74" transform="translate(664.498047 0)"/>
     <use xlink:href="#DejaVuSans-6f" transform="translate(703.707031 0)"/>
     <use xlink:href="#DejaVuSans-72" transform="translate(764.888672 0)"/>
    </g>
   </g>
   <g id="text_24">
    <g id="patch_17">
     <path d="M 811.939861 111.701229 
L 895.488986 111.701229 
Q 897.424986 111.701229 897.424986 109.765229 
L 897.424986 101.248479 
Q 897.424986 99.312479 895.488986 99.312479 
L 811.939861 99.312479 
Q 810.003861 99.312479 810.003861 101.248479 
L 810.003861 109.765229 
Q 810.003861 111.701229 811.939861 111.701229 
z
" style="fill: #ffffff; opacity: 0.95; stroke: #cccccc; stroke-linejoin: miter"/>
    </g>
    <!-- Dedicated Phase D -->
    <g transform="translate(811.939861 107.935104) scale(0.088 -0.088)">
     <use xlink:href="#DejaVuSans-44"/>
     <use xlink:href="#DejaVuSans-65" transform="translate(77.001953 0)"/>
     <use xlink:href="#DejaVuSans-64" transform="translate(138.525391 0)"/>
     <use xlink:href="#DejaVuSans-69" transform="translate(202.001953 0)"/>
     <use xlink:href="#DejaVuSans-63" transform="translate(229.785156 0)"/>
     <use xlink:href="#DejaVuSans-61" transform="translate(284.765625 0)"/>
     <use xlink:href="#DejaVuSans-74" transform="translate(346.044922 0)"/>
     <use xlink:href="#DejaVuSans-65" transform="translate(385.253906 0)"/>
     <use xlink:href="#DejaVuSans-64" transform="translate(446.777344 0)"/>
     <use xlink:href="#DejaVuSans-20" transform="translate(510.253906 0)"/>
     <use xlink:href="#DejaVuSans-50" transform="translate(542.041016 0)"/>
     <use xlink:href="#DejaVuSans-68" transform="translate(602.34375 0)"/>
     <use xlink:href="#DejaVuSans-61" transform="translate(665.722656 0)"/>
     <use xlink:href="#DejaVuSans-73" transform="translate(727.001953 0)"/>
     <use xlink:href="#DejaVuSans-65" transform="translate(779.101562 0)"/>
     <use xlink:href="#DejaVuSans-20" transform="translate(840.625 0)"/>
     <use xlink:href="#DejaVuSans-44" transform="translate(872.412109 0)"/>
    </g>
   </g>
   <g id="text_25">
    <!-- warm-start -->
    <g style="fill: #555555" transform="translate(832.311345 331.070727) scale(0.078 -0.078)">
     <use xlink:href="#DejaVuSans-77"/>
     <use xlink:href="#DejaVuSans-61" transform="translate(81.787109 0)"/>
     <use xlink:href="#DejaVuSans-72" transform="translate(143.066406 0)"/>
     <use xlink:href="#DejaVuSans-6d" transform="translate(182.429688 0)"/>
     <use xlink:href="#DejaVuSans-2d" transform="translate(279.841797 0)"/>
     <use xlink:href="#DejaVuSans-73" transform="translate(315.925781 0)"/>
     <use xlink:href="#DejaVuSans-74" transform="translate(368.025391 0)"/>
     <use xlink:href="#DejaVuSans-61" transform="translate(407.234375 0)"/>
     <use xlink:href="#DejaVuSans-72" transform="translate(468.513672 0)"/>
     <use xlink:href="#DejaVuSans-74" transform="translate(509.626953 0)"/>
    </g>
   </g>
   <g id="text_26">
    <!-- The key ladder move is train split testmini -&gt; test at Large Phase C, while checkpoint evaluation stayed on testmini for comparability. -->
    <g style="fill: #555555" transform="translate(59.6375 429.400886) scale(0.09 -0.09)">
     <defs>
      <path id="DejaVuSans-54" d="M -19 4666 
L 3928 4666 
L 3928 4134 
L 2272 4134 
L 2272 0 
L 1638 0 
L 1638 4134 
L -19 4134 
L -19 4666 
z
" transform="scale(0.015625)"/>
      <path id="DejaVuSans-79" d="M 2059 -325 
Q 1816 -950 1584 -1140 
Q 1353 -1331 966 -1331 
L 506 -1331 
L 506 -850 
L 844 -850 
Q 1081 -850 1212 -737 
Q 1344 -625 1503 -206 
L 1606 56 
L 191 3500 
L 800 3500 
L 1894 763 
L 2988 3500 
L 3597 3500 
L 2059 -325 
z
" transform="scale(0.015625)"/>
      <path id="DejaVuSans-76" d="M 191 3500 
L 800 3500 
L 1894 563 
L 2988 3500 
L 3597 3500 
L 2284 0 
L 1503 0 
L 191 3500 
z
" transform="scale(0.015625)"/>
      <path id="DejaVuSans-70" d="M 1159 525 
L 1159 -1331 
L 581 -1331 
L 581 3500 
L 1159 3500 
L 1159 2969 
Q 1341 3281 1617 3432 
Q 1894 3584 2278 3584 
Q 2916 3584 3314 3078 
Q 3713 2572 3713 1747 
Q 3713 922 3314 415 
Q 2916 -91 2278 -91 
Q 1894 -91 1617 61 
Q 1341 213 1159 525 
z
M 3116 1747 
Q 3116 2381 2855 2742 
Q 2594 3103 2138 3103 
Q 1681 3103 1420 2742 
Q 1159 2381 1159 1747 
Q 1159 1113 1420 752 
Q 1681 391 2138 391 
Q 2594 391 2855 752 
Q 3116 1113 3116 1747 
z
" transform="scale(0.015625)"/>
      <path id="DejaVuSans-3e" d="M 678 3150 
L 678 3719 
L 4684 2266 
L 4684 1747 
L 678 294 
L 678 863 
L 3897 2003 
L 678 3150 
z
" transform="scale(0.015625)"/>
      <path id="DejaVuSans-2c" d="M 750 794 
L 1409 794 
L 1409 256 
L 897 -744 
L 494 -744 
L 750 256 
L 750 794 
z
" transform="scale(0.015625)"/>
      <path id="DejaVuSans-66" d="M 2375 4863 
L 2375 4384 
L 1825 4384 
Q 1516 4384 1395 4259 
Q 1275 4134 1275 3809 
L 1275 3500 
L 2222 3500 
L 2222 3053 
L 1275 3053 
L 1275 0 
L 697 0 
L 697 3053 
L 147 3053 
L 147 3500 
L 697 3500 
L 697 3744 
Q 697 4328 969 4595 
Q 1241 4863 1831 4863 
L 2375 4863 
z
" transform="scale(0.015625)"/>
      <path id="DejaVuSans-62" d="M 3116 1747 
Q 3116 2381 2855 2742 
Q 2594 3103 2138 3103 
Q 1681 3103 1420 2742 
Q 1159 2381 1159 1747 
Q 1159 1113 1420 752 
Q 1681 391 2138 391 
Q 2594 391 2855 752 
Q 3116 1113 3116 1747 
z
M 1159 2969 
Q 1341 3281 1617 3432 
Q 1894 3584 2278 3584 
Q 2916 3584 3314 3078 
Q 3713 2572 3713 1747 
Q 3713 922 3314 415 
Q 2916 -91 2278 -91 
Q 1894 -91 1617 61 
Q 1341 213 1159 525 
L 1159 0 
L 581 0 
L 581 4863 
L 1159 4863 
L 1159 2969 
z
" transform="scale(0.015625)"/>
      <path id="DejaVuSans-2e" d="M 684 794 
L 1344 794 
L 1344 0 
L 684 0 
L 684 794 
z
" transform="scale(0.015625)"/>
     </defs>
     <use xlink:href="#DejaVuSans-54"/>
     <use xlink:href="#DejaVuSans-68" transform="translate(61.083984 0)"/>
     <use xlink:href="#DejaVuSans-65" transform="translate(124.462891 0)"/>
     <use xlink:href="#DejaVuSans-20" transform="translate(185.986328 0)"/>
     <use xlink:href="#DejaVuSans-6b" transform="translate(217.773438 0)"/>
     <use xlink:href="#DejaVuSans-65" transform="translate(272.058594 0)"/>
     <use xlink:href="#DejaVuSans-79" transform="translate(333.582031 0)"/>
     <use xlink:href="#DejaVuSans-20" transform="translate(392.761719 0)"/>
     <use xlink:href="#DejaVuSans-6c" transform="translate(424.548828 0)"/>
     <use xlink:href="#DejaVuSans-61" transform="translate(452.332031 0)"/>
     <use xlink:href="#DejaVuSans-64" transform="translate(513.611328 0)"/>
     <use xlink:href="#DejaVuSans-64" transform="translate(577.087891 0)"/>
     <use xlink:href="#DejaVuSans-65" transform="translate(640.564453 0)"/>
     <use xlink:href="#DejaVuSans-72" transform="translate(702.087891 0)"/>
     <use xlink:href="#DejaVuSans-20" transform="translate(743.201172 0)"/>
     <use xlink:href="#DejaVuSans-6d" transform="translate(774.988281 0)"/>
     <use xlink:href="#DejaVuSans-6f" transform="translate(872.400391 0)"/>
     <use xlink:href="#DejaVuSans-76" transform="translate(933.582031 0)"/>
     <use xlink:href="#DejaVuSans-65" transform="translate(992.761719 0)"/>
     <use xlink:href="#DejaVuSans-20" transform="translate(1054.285156 0)"/>
     <use xlink:href="#DejaVuSans-69" transform="translate(1086.072266 0)"/>
     <use xlink:href="#DejaVuSans-73" transform="translate(1113.855469 0)"/>
     <use xlink:href="#DejaVuSans-20" transform="translate(1165.955078 0)"/>
     <use xlink:href="#DejaVuSans-74" transform="translate(1197.742188 0)"/>
     <use xlink:href="#DejaVuSans-72" transform="translate(1236.951172 0)"/>
     <use xlink:href="#DejaVuSans-61" transform="translate(1278.064453 0)"/>
     <use xlink:href="#DejaVuSans-69" transform="translate(1339.34375 0)"/>
     <use xlink:href="#DejaVuSans-6e" transform="translate(1367.126953 0)"/>
     <use xlink:href="#DejaVuSans-20" transform="translate(1430.505859 0)"/>
     <use xlink:href="#DejaVuSans-73" transform="translate(1462.292969 0)"/>
     <use xlink:href="#DejaVuSans-70" transform="translate(1514.392578 0)"/>
     <use xlink:href="#DejaVuSans-6c" transform="translate(1577.869141 0)"/>
     <use xlink:href="#DejaVuSans-69" transform="translate(1605.652344 0)"/>
     <use xlink:href="#DejaVuSans-74" transform="translate(1633.435547 0)"/>
     <use xlink:href="#DejaVuSans-20" transform="translate(1672.644531 0)"/>
     <use xlink:href="#DejaVuSans-74" transform="translate(1704.431641 0)"/>
     <use xlink:href="#DejaVuSans-65" transform="translate(1743.640625 0)"/>
     <use xlink:href="#DejaVuSans-73" transform="translate(1805.164062 0)"/>
     <use xlink:href="#DejaVuSans-74" transform="translate(1857.263672 0)"/>
     <use xlink:href="#DejaVuSans-6d" transform="translate(1896.472656 0)"/>
     <use xlink:href="#DejaVuSans-69" transform="translate(1993.884766 0)"/>
     <use xlink:href="#DejaVuSans-6e" transform="translate(2021.667969 0)"/>
     <use xlink:href="#DejaVuSans-69" transform="translate(2085.046875 0)"/>
     <use xlink:href="#DejaVuSans-20" transform="translate(2112.830078 0)"/>
     <use xlink:href="#DejaVuSans-2d" transform="translate(2144.617188 0)"/>
     <use xlink:href="#DejaVuSans-3e" transform="translate(2180.701172 0)"/>
     <use xlink:href="#DejaVuSans-20" transform="translate(2264.490234 0)"/>
     <use xlink:href="#DejaVuSans-74" transform="translate(2296.277344 0)"/>
     <use xlink:href="#DejaVuSans-65" transform="translate(2335.486328 0)"/>
     <use xlink:href="#DejaVuSans-73" transform="translate(2397.009766 0)"/>
     <use xlink:href="#DejaVuSans-74" transform="translate(2449.109375 0)"/>
     <use xlink:href="#DejaVuSans-20" transform="translate(2488.318359 0)"/>
     <use xlink:href="#DejaVuSans-61" transform="translate(2520.105469 0)"/>
     <use xlink:href="#DejaVuSans-74" transform="translate(2581.384766 0)"/>
     <use xlink:href="#DejaVuSans-20" transform="translate(2620.59375 0)"/>
     <use xlink:href="#DejaVuSans-4c" transform="translate(2652.380859 0)"/>
     <use xlink:href="#DejaVuSans-61" transform="translate(2708.09375 0)"/>
     <use xlink:href="#DejaVuSans-72" transform="translate(2769.373047 0)"/>
     <use xlink:href="#DejaVuSans-67" transform="translate(2808.736328 0)"/>
     <use xlink:href="#DejaVuSans-65" transform="translate(2872.212891 0)"/>
     <use xlink:href="#DejaVuSans-20" transform="translate(2933.736328 0)"/>
     <use xlink:href="#DejaVuSans-50" transform="translate(2965.523438 0)"/>
     <use xlink:href="#DejaVuSans-68" transform="translate(3025.826172 0)"/>
     <use xlink:href="#DejaVuSans-61" transform="translate(3089.205078 0)"/>
     <use xlink:href="#DejaVuSans-73" transform="translate(3150.484375 0)"/>
     <use xlink:href="#DejaVuSans-65" transform="translate(3202.583984 0)"/>
     <use xlink:href="#DejaVuSans-20" transform="translate(3264.107422 0)"/>
     <use xlink:href="#DejaVuSans-43" transform="translate(3295.894531 0)"/>
     <use xlink:href="#DejaVuSans-2c" transform="translate(3365.71875 0)"/>
     <use xlink:href="#DejaVuSans-20" transform="translate(3397.505859 0)"/>
     <use xlink:href="#DejaVuSans-77" transform="translate(3429.292969 0)"/>
     <use xlink:href="#DejaVuSans-68" transform="translate(3511.080078 0)"/>
     <use xlink:href="#DejaVuSans-69" transform="translate(3574.458984 0)"/>
     <use xlink:href="#DejaVuSans-6c" transform="translate(3602.242188 0)"/>
     <use xlink:href="#DejaVuSans-65" transform="translate(3630.025391 0)"/>
     <use xlink:href="#DejaVuSans-20" transform="translate(3691.548828 0)"/>
     <use xlink:href="#DejaVuSans-63" transform="translate(3723.335938 0)"/>
     <use xlink:href="#DejaVuSans-68" transform="translate(3778.316406 0)"/>
     <use xlink:href="#DejaVuSans-65" transform="translate(3841.695312 0)"/>
     <use xlink:href="#DejaVuSans-63" transform="translate(3903.21875 0)"/>
     <use xlink:href="#DejaVuSans-6b" transform="translate(3958.199219 0)"/>
     <use xlink:href="#DejaVuSans-70" transform="translate(4016.109375 0)"/>
     <use xlink:href="#DejaVuSans-6f" transform="translate(4079.585938 0)"/>
     <use xlink:href="#DejaVuSans-69" transform="translate(4140.767578 0)"/>
     <use xlink:href="#DejaVuSans-6e" transform="translate(4168.550781 0)"/>
     <use xlink:href="#DejaVuSans-74" transform="translate(4231.929688 0)"/>
     <use xlink:href="#DejaVuSans-20" transform="translate(4271.138672 0)"/>
     <use xlink:href="#DejaVuSans-65" transform="translate(4302.925781 0)"/>
     <use xlink:href="#DejaVuSans-76" transform="translate(4364.449219 0)"/>
     <use xlink:href="#DejaVuSans-61" transform="translate(4423.628906 0)"/>
     <use xlink:href="#DejaVuSans-6c" transform="translate(4484.908203 0)"/>
     <use xlink:href="#DejaVuSans-75" transform="translate(4512.691406 0)"/>
     <use xlink:href="#DejaVuSans-61" transform="translate(4576.070312 0)"/>
     <use xlink:href="#DejaVuSans-74" transform="translate(4637.349609 0)"/>
     <use xlink:href="#DejaVuSans-69" transform="translate(4676.558594 0)"/>
     <use xlink:href="#DejaVuSans-6f" transform="translate(4704.341797 0)"/>
     <use xlink:href="#DejaVuSans-6e" transform="translate(4765.523438 0)"/>
     <use xlink:href="#DejaVuSans-20" transform="translate(4828.902344 0)"/>
     <use xlink:href="#DejaVuSans-73" transform="translate(4860.689453 0)"/>
     <use xlink:href="#DejaVuSans-74" transform="translate(4912.789062 0)"/>
     <use xlink:href="#DejaVuSans-61" transform="translate(4951.998047 0)"/>
     <use xlink:href="#DejaVuSans-79" transform="translate(5013.277344 0)"/>
     <use xlink:href="#DejaVuSans-65" transform="translate(5072.457031 0)"/>
     <use xlink:href="#DejaVuSans-64" transform="translate(5133.980469 0)"/>
     <use xlink:href="#DejaVuSans-20" transform="translate(5197.457031 0)"/>
     <use xlink:href="#DejaVuSans-6f" transform="translate(5229.244141 0)"/>
     <use xlink:href="#DejaVuSans-6e" transform="translate(5290.425781 0)"/>
     <use xlink:href="#DejaVuSans-20" transform="translate(5353.804688 0)"/>
     <use xlink:href="#DejaVuSans-74" transform="translate(5385.591797 0)"/>
     <use xlink:href="#DejaVuSans-65" transform="translate(5424.800781 0)"/>
     <use xlink:href="#DejaVuSans-73" transform="translate(5486.324219 0)"/>
     <use xlink:href="#DejaVuSans-74" transform="translate(5538.423828 0)"/>
     <use xlink:href="#DejaVuSans-6d" transform="translate(5577.632812 0)"/>
     <use xlink:href="#DejaVuSans-69" transform="translate(5675.044922 0)"/>
     <use xlink:href="#DejaVuSans-6e" transform="translate(5702.828125 0)"/>
     <use xlink:href="#DejaVuSans-69" transform="translate(5766.207031 0)"/>
     <use xlink:href="#DejaVuSans-20" transform="translate(5793.990234 0)"/>
     <use xlink:href="#DejaVuSans-66" transform="translate(5825.777344 0)"/>
     <use xlink:href="#DejaVuSans-6f" transform="translate(5860.982422 0)"/>
     <use xlink:href="#DejaVuSans-72" transform="translate(5922.164062 0)"/>
     <use xlink:href="#DejaVuSans-20" transform="translate(5963.277344 0)"/>
     <use xlink:href="#DejaVuSans-63" transform="translate(5995.064453 0)"/>
     <use xlink:href="#DejaVuSans-6f" transform="translate(6050.044922 0)"/>
     <use xlink:href="#DejaVuSans-6d" transform="translate(6111.226562 0)"/>
     <use xlink:href="#DejaVuSans-70" transform="translate(6208.638672 0)"/>
     <use xlink:href="#DejaVuSans-61" transform="translate(6272.115234 0)"/>
     <use xlink:href="#DejaVuSans-72" transform="translate(6333.394531 0)"/>
     <use xlink:href="#DejaVuSans-61" transform="translate(6374.507812 0)"/>
     <use xlink:href="#DejaVuSans-62" transform="translate(6435.787109 0)"/>
     <use xlink:href="#DejaVuSans-69" transform="translate(6499.263672 0)"/>
     <use xlink:href="#DejaVuSans-6c" transform="translate(6527.046875 0)"/>
     <use xlink:href="#DejaVuSans-69" transform="translate(6554.830078 0)"/>
     <use xlink:href="#DejaVuSans-74" transform="translate(6582.613281 0)"/>
     <use xlink:href="#DejaVuSans-79" transform="translate(6621.822266 0)"/>
     <use xlink:href="#DejaVuSans-2e" transform="translate(6666.751953 0)"/>
    </g>
   </g>
   <g id="text_27">
    <!-- Split Transition Ladder -->
    <g transform="translate(59.6375 17.837812) scale(0.14 -0.14)">
     <use xlink:href="#DejaVuSans-53"/>
     <use xlink:href="#DejaVuSans-70" transform="translate(63.476562 0)"/>
     <use xlink:href="#DejaVuSans-6c" transform="translate(126.953125 0)"/>
     <use xlink:href="#DejaVuSans-69" transform="translate(154.736328 0)"/>
     <use xlink:href="#DejaVuSans-74" transform="translate(182.519531 0)"/>
     <use xlink:href="#DejaVuSans-20" transform="translate(221.728516 0)"/>
     <use xlink:href="#DejaVuSans-54" transform="translate(253.515625 0)"/>
     <use xlink:href="#DejaVuSans-72" transform="translate(299.849609 0)"/>
     <use xlink:href="#DejaVuSans-61" transform="translate(340.962891 0)"/>
     <use xlink:href="#DejaVuSans-6e" transform="translate(402.242188 0)"/>
     <use xlink:href="#DejaVuSans-73" transform="translate(465.621094 0)"/>
     <use xlink:href="#DejaVuSans-69" transform="translate(517.720703 0)"/>
     <use xlink:href="#DejaVuSans-74" transform="translate(545.503906 0)"/>
     <use xlink:href="#DejaVuSans-69" transform="translate(584.712891 0)"/>
     <use xlink:href="#DejaVuSans-6f" transform="translate(612.496094 0)"/>
     <use xlink:href="#DejaVuSans-6e" transform="translate(673.677734 0)"/>
     <use xlink:href="#DejaVuSans-20" transform="translate(737.056641 0)"/>
     <use xlink:href="#DejaVuSans-4c" transform="translate(768.84375 0)"/>
     <use xlink:href="#DejaVuSans-61" transform="translate(824.556641 0)"/>
     <use xlink:href="#DejaVuSans-64" transform="translate(885.835938 0)"/>
     <use xlink:href="#DejaVuSans-64" transform="translate(949.3125 0)"/>
     <use xlink:href="#DejaVuSans-65" transform="translate(1012.789062 0)"/>
     <use xlink:href="#DejaVuSans-72" transform="translate(1074.3125 0)"/>
    </g>
   </g>
   <g id="legend_1">
    <g id="line2d_17">
     <path d="M 67.2875 34.971484 
L 75.7875 34.971484 
L 84.2875 34.971484 
" style="fill: none; stroke: #1f77b4; stroke-width: 3; stroke-linecap: square"/>
     <g>
      <use xlink:href="#me200e1138b" x="75.7875" y="34.971484" style="fill: #1f77b4; stroke: #1f77b4"/>
     </g>
    </g>
    <g id="text_28">
     <!-- train split -->
     <g transform="translate(91.0875 37.946484) scale(0.085 -0.085)">
      <use xlink:href="#DejaVuSans-74"/>
      <use xlink:href="#DejaVuSans-72" transform="translate(39.208984 0)"/>
      <use xlink:href="#DejaVuSans-61" transform="translate(80.322266 0)"/>
      <use xlink:href="#DejaVuSans-69" transform="translate(141.601562 0)"/>
      <use xlink:href="#DejaVuSans-6e" transform="translate(169.384766 0)"/>
      <use xlink:href="#DejaVuSans-20" transform="translate(232.763672 0)"/>
      <use xlink:href="#DejaVuSans-73" transform="translate(264.550781 0)"/>
      <use xlink:href="#DejaVuSans-70" transform="translate(316.650391 0)"/>
      <use xlink:href="#DejaVuSans-6c" transform="translate(380.126953 0)"/>
      <use xlink:href="#DejaVuSans-69" transform="translate(407.910156 0)"/>
      <use xlink:href="#DejaVuSans-74" transform="translate(435.693359 0)"/>
     </g>
    </g>
    <g id="line2d_18">
     <path d="M 67.2875 47.447891 
L 75.7875 47.447891 
L 84.2875 47.447891 
" style="fill: none; stroke-dasharray: 8.14,3.52; stroke-dashoffset: 0; stroke: #ff7f0e; stroke-width: 2.2"/>
     <g>
      <use xlink:href="#m21ab7bb867" x="75.7875" y="47.447891" style="fill: #ffffff; stroke: #ff7f0e"/>
     </g>
    </g>
    <g id="text_29">
     <!-- eval split -->
     <g transform="translate(91.0875 50.422891) scale(0.085 -0.085)">
      <use xlink:href="#DejaVuSans-65"/>
      <use xlink:href="#DejaVuSans-76" transform="translate(61.523438 0)"/>
      <use xlink:href="#DejaVuSans-61" transform="translate(120.703125 0)"/>
      <use xlink:href="#DejaVuSans-6c" transform="translate(181.982422 0)"/>
      <use xlink:href="#DejaVuSans-20" transform="translate(209.765625 0)"/>
      <use xlink:href="#DejaVuSans-73" transform="translate(241.552734 0)"/>
      <use xlink:href="#DejaVuSans-70" transform="translate(293.652344 0)"/>
      <use xlink:href="#DejaVuSans-6c" transform="translate(357.128906 0)"/>
      <use xlink:href="#DejaVuSans-69" transform="translate(384.912109 0)"/>
      <use xlink:href="#DejaVuSans-74" transform="translate(412.695312 0)"/>
     </g>
    </g>
   </g>
  </g>
 </g>
 <defs>
  <clipPath id="pa141612df6">
   <rect x="59.6375" y="23.837812" width="837" height="321.552"/>
  </clipPath>
 </defs>
</svg>
